<svg width="157" height="35" viewBox="0 0 157 35" fill="none" xmlns="http://www.w3.org/2000/svg">
<path d="M14.048 0.720122C13.8564 0.384885 13.5265 0.167603 13.154 0.167603H5.84801H1.08021C0.48423 0.167603 0 0.732538 0 1.42784V6.99028V15.514C0 15.8616 0.122386 16.1783 0.31395 16.4017C0.510835 16.6314 0.776892 16.768 1.07488 16.768H8.38092H13.1487C13.7447 16.768 14.2289 16.2031 14.2289 15.5078V9.94534V1.42164C14.2343 1.1609 14.1651 0.918781 14.048 0.720122Z" fill="#006086"/>
<path d="M3.71947 4.01038H10.52L10.5466 5.70518C10.4827 5.59964 10.4189 5.50652 10.355 5.42582C10.2859 5.34511 10.206 5.27061 10.1103 5.21474C10.0145 5.15886 9.89741 5.11541 9.75906 5.09058C9.6207 5.06574 9.45574 5.05333 9.25886 5.05333H7.69975V11.7456C7.69975 11.9753 7.7157 12.174 7.75295 12.3416C7.79019 12.5155 7.83278 12.6582 7.88067 12.7762C7.92856 12.8941 7.97645 12.9873 8.0137 13.0493C8.05627 13.1114 8.07754 13.1487 8.08819 13.1611H6.14594C6.15659 13.1611 6.17788 13.1301 6.22045 13.068C6.26302 13.0059 6.30559 12.919 6.35348 12.801C6.40137 12.6893 6.44926 12.5403 6.48651 12.3665C6.52376 12.1926 6.54504 11.9816 6.54504 11.7456V5.05333H4.98592C4.59747 5.05333 4.31013 5.1092 4.13452 5.21474C3.95892 5.32648 3.80994 5.4879 3.69287 5.70518L3.71947 4.01038Z" fill="white"/>
<path d="M29.1071 0.720122C28.9155 0.384885 28.5856 0.167603 28.2131 0.167603H20.9071H16.1393C15.5433 0.167603 15.0591 0.732538 15.0591 1.42784V6.99028V9.95154V15.514C15.0591 16.2093 15.5433 16.7742 16.1393 16.7742H20.9071H28.2131C28.5856 16.7742 28.9155 16.557 29.1071 16.2217C29.2242 16.0231 29.2933 15.7809 29.2933 15.5202V1.44026C29.2933 1.1609 29.2242 0.918781 29.1071 0.720122Z" fill="#878B8D"/>
<path d="M23.3174 9.94533H20.6568L20.1353 11.7457C20.0555 12.0064 20.0182 12.2237 20.0289 12.3975C20.0395 12.5713 20.0661 12.7141 20.114 12.8259C20.1619 12.9376 20.2151 13.0121 20.2683 13.068C20.3215 13.1177 20.3535 13.1487 20.3641 13.1611H18.3687C18.3793 13.1487 18.4112 13.1115 18.4751 13.0494C18.5389 12.9873 18.6081 12.8942 18.6879 12.7762C18.7677 12.6583 18.8476 12.5155 18.9327 12.3416C19.0178 12.1678 19.0923 11.9692 19.1668 11.7457L21.0559 5.44446C21.0931 5.35134 21.1197 5.23959 21.1357 5.10302C21.1517 4.96644 21.157 4.83607 21.141 4.7057C21.1304 4.57533 21.0931 4.45117 21.0399 4.32701C20.9867 4.20284 20.9069 4.09731 20.8005 4.0166H22.7054C22.748 4.1718 22.8066 4.35184 22.8811 4.5505C22.9502 4.75536 23.0513 5.03473 23.1737 5.38859C23.2961 5.74866 23.4557 6.21427 23.642 6.78541C23.8282 7.36276 24.0517 8.05186 24.3071 8.86512C24.5626 9.67837 24.8659 10.6406 25.2117 11.7457C25.2809 11.9754 25.3607 12.174 25.4459 12.3416C25.531 12.5155 25.6108 12.6521 25.6906 12.77C25.7705 12.888 25.8343 12.9749 25.8875 13.0432C25.9407 13.1114 25.978 13.1487 25.9939 13.1611H23.7058C23.7058 13.1487 23.7324 13.1239 23.7803 13.0742C23.8282 13.0307 23.8708 12.95 23.908 12.8445C23.9453 12.7328 23.9612 12.5962 23.9666 12.4161C23.9719 12.2423 23.9347 12.0188 23.8548 11.7457L23.3174 9.94533ZM20.9388 8.96445H23.0141L21.9498 5.61208L20.9388 8.96445Z" fill="white"/>
<path d="M28.2131 17.7366H23.4453H20.9071H16.1393C15.5433 17.7366 15.0591 18.3015 15.0591 18.9968V24.5593V33.083C15.0591 33.4306 15.1815 33.7472 15.373 33.9707C15.5699 34.2004 15.836 34.337 16.134 34.337H28.2025C28.7985 34.337 29.2827 33.7721 29.2827 33.0767V24.553V18.9906C29.2933 18.2953 28.8091 17.7366 28.2131 17.7366Z" fill="#006086"/>
<path d="M23.5408 28.5138C23.5408 28.2841 23.4982 28.0917 23.4184 27.9241C23.3333 27.7565 23.2215 27.6075 23.0778 27.4709C22.9342 27.3343 22.7639 27.2164 22.5723 27.1046C22.3807 26.9991 22.1732 26.8873 21.955 26.788C21.6517 26.6452 21.3484 26.4776 21.0451 26.2914C20.7365 26.1051 20.4651 25.8878 20.2203 25.6457C19.9756 25.4036 19.7787 25.1304 19.6297 24.82C19.4807 24.5158 19.4062 24.1682 19.4062 23.7895C19.4062 23.448 19.4754 23.1376 19.619 22.8521C19.7574 22.5665 19.9543 22.3182 20.2097 22.1071C20.4651 21.896 20.7631 21.7284 21.1037 21.6105C21.4442 21.4925 21.822 21.4304 22.2264 21.4304C22.7958 21.4304 23.2694 21.4801 23.6366 21.5856C24.0037 21.6912 24.2964 21.8029 24.5146 21.9271V23.3735C24.3922 23.1066 24.1527 22.8769 23.8068 22.6907C23.461 22.5044 23.0459 22.4113 22.567 22.4113C21.9976 22.4113 21.5719 22.5293 21.2952 22.7714C21.0185 23.0073 20.8802 23.2804 20.8802 23.5784C20.8802 23.7647 20.9281 23.9385 21.0292 24.0937C21.1303 24.2489 21.258 24.3979 21.4176 24.5345C21.5773 24.6772 21.7635 24.8076 21.9763 24.9318C22.1892 25.0559 22.4074 25.1801 22.6202 25.3043C22.9501 25.4905 23.2641 25.683 23.5568 25.8816C23.8494 26.0803 24.0995 26.2914 24.3124 26.5273C24.5252 26.7632 24.6955 27.0239 24.8179 27.3095C24.9403 27.6012 25.0041 27.9303 25.0041 28.3028C25.0041 28.6753 24.9243 29.0167 24.77 29.3333C24.6157 29.6499 24.3975 29.9231 24.1155 30.1466C23.8335 30.3763 23.5035 30.5501 23.1257 30.6805C22.7479 30.8108 22.3329 30.8729 21.8859 30.8729C21.2952 30.8729 20.8057 30.8233 20.4119 30.7177C20.0235 30.6122 19.7148 30.5004 19.486 30.3763L19.3477 28.7622C19.4328 28.9049 19.5552 29.0477 19.7148 29.1905C19.8745 29.3333 20.0607 29.4513 20.2682 29.5568C20.4758 29.6623 20.6992 29.7431 20.9281 29.8051C21.1622 29.8672 21.391 29.8982 21.6198 29.8982C21.9338 29.8982 22.2051 29.8548 22.4393 29.7741C22.6734 29.6934 22.8703 29.5879 23.0406 29.4575C23.2055 29.3271 23.3333 29.1781 23.4131 29.0167C23.5035 28.8491 23.5408 28.6815 23.5408 28.5138Z" fill="white"/>
<path d="M13.154 17.7366H8.38623H5.84801H1.08021C0.48423 17.7366 0 18.3015 0 18.9968V24.5593V33.083C0 33.4306 0.122386 33.7472 0.31395 33.9707C0.510835 34.2004 0.776892 34.337 1.07488 34.337H13.1434C13.5159 34.337 13.8458 34.1197 14.0374 33.7845C14.1544 33.5858 14.2236 33.3437 14.2236 33.083V24.5593V18.9968C14.2342 18.2953 13.75 17.7366 13.154 17.7366Z" fill="#006086"/>
<path d="M10.2593 30.2768C10.2327 30.3948 10.2061 30.4817 10.1795 30.5438C10.1529 30.6059 10.1369 30.6431 10.1316 30.6493H11.728C11.7226 30.6493 11.696 30.6183 11.6535 30.5562C11.6109 30.4941 11.563 30.4072 11.5045 30.2955C11.4513 30.1837 11.3927 30.0409 11.3342 29.8671C11.2757 29.6933 11.2384 29.4884 11.2065 29.2587L10.4296 23.0444C10.403 22.8209 10.3924 22.6223 10.4083 22.4546C10.4243 22.287 10.4402 22.1442 10.4615 22.0263C10.4828 21.9083 10.5094 21.8214 10.5413 21.7593C10.5733 21.6973 10.5892 21.6662 10.5946 21.6538H9.40792C9.41856 21.6662 9.38664 21.7718 9.32278 21.9828L7.11448 28.0481L4.90618 21.9828C4.84232 21.7718 4.81039 21.6662 4.82104 21.6538H3.6344C3.63972 21.6662 3.66101 21.6973 3.68761 21.7593C3.71954 21.8214 3.74614 21.9083 3.76743 22.0263C3.78871 22.1442 3.81 22.287 3.82064 22.4546C3.83661 22.6223 3.82596 22.8209 3.79935 23.0444L3.02246 29.2587C2.99053 29.4946 2.95329 29.6995 2.89476 29.8671C2.83622 30.0409 2.78301 30.1837 2.72447 30.2955C2.66594 30.4072 2.61805 30.4941 2.57548 30.5562C2.53291 30.6183 2.5063 30.6493 2.50098 30.6493H4.10267C4.09735 30.6369 4.08139 30.6059 4.05478 30.5438C4.02817 30.4817 4.00157 30.3948 3.97496 30.2768C3.94836 30.1589 3.92707 30.0161 3.92175 29.8485C3.91111 29.6809 3.92174 29.4822 3.94835 29.2587L4.25699 26.8003L4.34213 26.1112L4.54965 24.4412L6.89631 30.6493H7.31669L9.66866 24.4288L9.87619 26.1112L9.96133 26.8003L10.27 29.2587C10.2966 29.4822 10.3072 29.6809 10.2966 29.8485C10.3072 30.0161 10.2859 30.1589 10.2593 30.2768Z" fill="white"/>
<path d="M37 0H36V35H37V0Z" fill="#006086"/>
<path d="M44.5972 32.4061C44.5972 32.5117 44.6078 32.6048 44.6238 32.6793C44.6397 32.7538 44.6663 32.822 44.6929 32.8779C44.7195 32.9338 44.7408 32.9773 44.7621 33.0021C44.7834 33.0331 44.794 33.0455 44.7994 33.0517H43.767C43.7724 33.0517 43.783 33.0393 43.8043 33.0083C43.8256 32.9773 43.8469 32.94 43.8735 32.8841C43.9001 32.8345 43.9214 32.7662 43.9427 32.6855C43.9639 32.6048 43.9746 32.5116 43.9746 32.3999V29.4945C43.9746 29.389 43.9639 29.2959 43.9427 29.2214C43.9214 29.1407 43.9001 29.0786 43.8735 29.0227C43.8522 28.9668 43.8256 28.9234 43.8043 28.8985C43.783 28.8675 43.767 28.8551 43.7617 28.8489H44.794C44.7887 28.8551 44.7781 28.8675 44.7568 28.8985C44.7355 28.9296 44.7142 28.9668 44.6876 29.0227C44.661 29.0786 44.6397 29.1407 44.6184 29.2214C44.5971 29.3021 44.5918 29.3952 44.5918 29.5007V32.4061H44.5972Z" fill="#006086"/>
<path d="M51.318 33.058H50.9721C50.7646 32.7786 50.5783 32.5303 50.4187 32.313C50.2591 32.1019 50.0835 31.866 49.8972 31.6115C49.711 31.357 49.5301 31.1148 49.3651 30.8913C49.2002 30.6679 49.0565 30.4692 48.9341 30.3016C48.8117 30.1339 48.7425 30.0284 48.7266 29.9849V32.4061C48.7266 32.5117 48.7372 32.6048 48.7532 32.6793C48.7691 32.7538 48.7957 32.822 48.8223 32.8779C48.8489 32.9338 48.8702 32.9773 48.8915 33.0021C48.9128 33.0331 48.9235 33.0455 48.9288 33.0517H48.0029C48.0082 33.0517 48.0188 33.0393 48.0401 33.0083C48.0614 32.9773 48.0827 32.94 48.1093 32.8841C48.1359 32.8345 48.1572 32.7662 48.1785 32.6855C48.1997 32.6048 48.2104 32.5116 48.2104 32.3999V29.4945C48.2104 29.389 48.1997 29.2959 48.1785 29.2214C48.1572 29.1407 48.1359 29.0786 48.1093 29.0227C48.088 28.9668 48.0614 28.9234 48.0401 28.8985C48.0188 28.8675 48.0029 28.8551 47.9976 28.8489H48.6361C48.6308 28.8551 48.6787 28.9172 48.7798 29.0475C48.8809 29.1717 49.0033 29.3331 49.1523 29.5318C49.3012 29.7304 49.4662 29.9477 49.6471 30.1836C49.828 30.4195 49.9983 30.6492 50.1633 30.8665C50.3283 31.0838 50.4666 31.2824 50.589 31.4501C50.7114 31.6177 50.7859 31.7418 50.8285 31.8163V29.5069C50.8285 29.4014 50.8178 29.3083 50.7965 29.2338C50.7752 29.1531 50.754 29.091 50.7273 29.0351C50.7061 28.9792 50.6795 28.9358 50.6582 28.911C50.6369 28.8799 50.6209 28.8675 50.6156 28.8613H51.5361C51.5308 28.8675 51.5202 28.8799 51.4989 28.911C51.4776 28.942 51.4563 28.9792 51.4297 29.0351C51.4031 29.091 51.3819 29.1531 51.3606 29.2338C51.3393 29.3145 51.3339 29.4076 51.3339 29.5131L51.318 33.058Z" fill="#006086"/>
<path d="M55.3992 30.9784C55.3992 31.2267 55.4365 31.4502 55.5163 31.6613C55.5961 31.8724 55.6972 32.0462 55.8249 32.1952C55.9526 32.3442 56.1069 32.4559 56.2719 32.5428C56.4422 32.6236 56.6178 32.667 56.7934 32.667C56.8998 32.667 57.0009 32.6546 57.1127 32.636C57.2191 32.6173 57.3255 32.5863 57.4213 32.549C57.5224 32.5118 57.6075 32.4621 57.6926 32.4001C57.7725 32.338 57.8363 32.2697 57.8895 32.189V32.8408C57.7512 32.9277 57.5809 32.9898 57.3681 33.0395C57.1552 33.0829 56.9317 33.1078 56.6869 33.1078C56.4209 33.1078 56.1654 33.0581 55.9207 32.9588C55.6759 32.8594 55.4577 32.7167 55.2715 32.5366C55.0799 32.3566 54.931 32.1331 54.8192 31.8724C54.7075 31.6116 54.6489 31.3198 54.6489 30.997C54.6489 30.6494 54.7074 30.339 54.8245 30.072C54.9416 29.7989 55.0959 29.5754 55.2928 29.3891C55.4843 29.2029 55.7078 29.0601 55.9526 28.967C56.2027 28.8677 56.4528 28.818 56.7082 28.818C56.9849 28.818 57.2191 28.8428 57.4053 28.8925C57.5916 28.9422 57.7405 28.9918 57.847 29.0477V29.712C57.7671 29.5754 57.6394 29.4636 57.4585 29.3891C57.2776 29.3146 57.0541 29.2712 56.7774 29.2712C56.5858 29.2712 56.4049 29.3146 56.2346 29.3953C56.0697 29.476 55.9207 29.594 55.7983 29.743C55.6706 29.892 55.5748 30.072 55.5003 30.2893C55.4365 30.4818 55.3992 30.7177 55.3992 30.9784Z" fill="#006086"/>
<path d="M61.0078 30.9783C61.0078 30.6307 61.0611 30.3203 61.1675 30.0533C61.2739 29.7802 61.4176 29.5567 61.5932 29.3704C61.7688 29.1842 61.9816 29.0414 62.2157 28.9483C62.4499 28.849 62.7 28.7993 62.966 28.7993C63.2374 28.7993 63.4929 28.849 63.7323 28.9483C63.9718 29.0476 64.1793 29.1904 64.3549 29.3704C64.5305 29.5567 64.6741 29.7864 64.7752 30.0533C64.8817 30.3265 64.9296 30.6307 64.9296 30.9783C64.9296 31.3012 64.8763 31.5929 64.7752 31.8537C64.6741 32.1144 64.5305 32.3379 64.3549 32.518C64.1793 32.7042 63.9718 32.8408 63.7323 32.9401C63.4929 33.0394 63.2374 33.0891 62.966 33.0891C62.7 33.0891 62.4499 33.0394 62.2157 32.9401C61.9816 32.8408 61.7741 32.698 61.5932 32.518C61.4122 32.3379 61.2739 32.1144 61.1675 31.8537C61.0611 31.5929 61.0078 31.3012 61.0078 30.9783ZM61.7155 30.9783C61.7155 31.2267 61.7475 31.4502 61.806 31.655C61.8645 31.8599 61.955 32.0337 62.0668 32.1765C62.1785 32.3193 62.3115 32.4372 62.4659 32.518C62.6202 32.5987 62.7851 32.6421 62.9713 32.6421C63.1576 32.6421 63.3226 32.6049 63.4822 32.518C63.6365 32.4372 63.7695 32.3255 63.876 32.1765C63.9824 32.0337 64.0675 31.8537 64.1314 31.655C64.1953 31.4502 64.2218 31.2267 64.2218 30.9783C64.2218 30.7176 64.1899 30.4817 64.1314 30.2706C64.0729 30.0596 63.9877 29.8795 63.876 29.7305C63.7695 29.5815 63.6365 29.4698 63.4822 29.3891C63.3279 29.3084 63.1576 29.2711 62.9713 29.2711C62.7851 29.2711 62.6202 29.3084 62.4659 29.3891C62.3115 29.4698 62.1785 29.5815 62.0668 29.7305C61.955 29.8795 61.8645 30.0596 61.806 30.2706C61.7475 30.4817 61.7155 30.7176 61.7155 30.9783Z" fill="#006086"/>
<path d="M68.9419 31.3445V32.4061C68.9419 32.5117 68.9525 32.6048 68.9685 32.6793C68.9844 32.7538 69.0111 32.822 69.0377 32.8779C69.0643 32.9338 69.0856 32.9773 69.1068 33.0021C69.1281 33.0331 69.1388 33.0455 69.1441 33.0517H68.1118C68.1171 33.0517 68.1277 33.0393 68.149 33.0083C68.1703 32.9773 68.1916 32.94 68.2182 32.8841C68.2448 32.8345 68.2661 32.7662 68.2874 32.6855C68.3087 32.6048 68.3193 32.5116 68.3193 32.3999V29.4945C68.3193 29.389 68.3087 29.2959 68.2874 29.2214C68.2661 29.1407 68.2448 29.0786 68.2182 29.0227C68.1969 28.9668 68.1703 28.9234 68.149 28.8985C68.1277 28.8675 68.1118 28.8551 68.1064 28.8489H69.2452C69.4634 28.8489 69.6656 28.8737 69.8518 28.9172C70.0381 28.9668 70.203 29.0413 70.336 29.1469C70.4691 29.2524 70.5755 29.3828 70.6553 29.5442C70.7351 29.7056 70.7724 29.8918 70.7724 30.1091C70.7724 30.2395 70.7511 30.3637 70.7139 30.4878C70.6766 30.612 70.6234 30.7237 70.5595 30.823C70.4957 30.9224 70.4158 31.0093 70.3201 31.0776C70.2296 31.1459 70.1232 31.2017 70.0115 31.2328L70.7777 32.5303C70.8628 32.6855 70.9586 32.8034 71.065 32.8841C71.1715 32.9648 71.2407 33.0207 71.2779 33.0455H70.038C70.054 33.0331 70.07 33.0145 70.0912 32.9897C70.1125 32.9648 70.1285 32.9338 70.1392 32.8903C70.1498 32.8531 70.1498 32.7972 70.1338 32.7413C70.1232 32.6793 70.0913 32.611 70.0434 32.5303L69.3197 31.3321H68.9419V31.3445ZM68.9419 29.3331V30.8913H69.192C69.4953 30.8913 69.7134 30.8168 69.8624 30.6616C70.0061 30.5064 70.0806 30.3264 70.0806 30.1215C70.0806 29.8484 70.0114 29.6435 69.8731 29.5193C69.7347 29.3952 69.5325 29.3331 69.2665 29.3331H68.9419Z" fill="#006086"/>
<path d="M75.2583 31.4128V32.4061C75.2583 32.5117 75.2689 32.6048 75.2849 32.6793C75.3008 32.7538 75.3275 32.822 75.3541 32.8779C75.3807 32.9338 75.402 32.9773 75.4232 33.0021C75.4445 33.0331 75.4552 33.0455 75.4605 33.0517H74.4282C74.4335 33.0517 74.4441 33.0393 74.4654 33.0083C74.4867 32.9773 74.508 32.94 74.5346 32.8841C74.5612 32.8345 74.5825 32.7662 74.6038 32.6855C74.6251 32.6048 74.6357 32.5116 74.6357 32.3999V29.4945C74.6357 29.389 74.6251 29.2959 74.6038 29.2214C74.5825 29.1407 74.5612 29.0786 74.5346 29.0227C74.5133 28.9668 74.4867 28.9234 74.4654 28.8985C74.4441 28.8675 74.4282 28.8551 74.4229 28.8489H75.4924C75.7266 28.8489 75.9447 28.8737 76.1522 28.9172C76.3545 28.9668 76.53 29.0413 76.679 29.1469C76.828 29.2524 76.9451 29.389 77.0249 29.5566C77.1048 29.7242 77.1473 29.9291 77.1473 30.165C77.1473 30.3636 77.1048 30.5437 77.0249 30.6989C76.9398 30.8541 76.828 30.9844 76.679 31.09C76.53 31.1955 76.3545 31.2762 76.1522 31.3321C75.95 31.388 75.7319 31.4128 75.4924 31.4128H75.2583ZM75.2583 29.3331V30.9596H75.5084C75.8117 30.9596 76.0405 30.8913 76.2054 30.7548C76.3704 30.6182 76.4502 30.4257 76.4502 30.1774C76.4502 29.8608 76.3704 29.6435 76.2054 29.5193C76.0405 29.3952 75.8117 29.3331 75.5084 29.3331H75.2583Z" fill="#006086"/>
<path d="M80.1958 30.9783C80.1958 30.6307 80.249 30.3203 80.3555 30.0533C80.4619 29.7802 80.6056 29.5567 80.7812 29.3704C80.9568 29.1842 81.1696 29.0414 81.4037 28.9483C81.6379 28.849 81.888 28.7993 82.154 28.7993C82.4254 28.7993 82.6808 28.849 82.9203 28.9483C83.1597 29.0476 83.3673 29.1904 83.5429 29.3704C83.7185 29.5567 83.8621 29.7864 83.9632 30.0533C84.0697 30.3265 84.1176 30.6307 84.1176 30.9783C84.1176 31.3012 84.0643 31.5929 83.9632 31.8537C83.8621 32.1144 83.7185 32.3379 83.5429 32.518C83.3673 32.7042 83.1597 32.8408 82.9203 32.9401C82.6808 33.0394 82.4254 33.0891 82.154 33.0891C81.888 33.0891 81.6379 33.0394 81.4037 32.9401C81.1696 32.8408 80.9621 32.698 80.7812 32.518C80.6002 32.3379 80.4619 32.1144 80.3555 31.8537C80.249 31.5929 80.1958 31.3012 80.1958 30.9783ZM80.9035 30.9783C80.9035 31.2267 80.9354 31.4502 80.994 31.655C81.0525 31.8599 81.143 32.0337 81.2548 32.1765C81.3665 32.3193 81.4995 32.4372 81.6538 32.518C81.8082 32.5987 81.9731 32.6421 82.1593 32.6421C82.3456 32.6421 82.5105 32.6049 82.6702 32.518C82.8245 32.4372 82.9575 32.3255 83.0639 32.1765C83.1704 32.0337 83.2555 31.8537 83.3194 31.655C83.3832 31.4502 83.4098 31.2267 83.4098 30.9783C83.4098 30.7176 83.3779 30.4817 83.3194 30.2706C83.2609 30.0596 83.1757 29.8795 83.0639 29.7305C82.9575 29.5815 82.8245 29.4698 82.6702 29.3891C82.5159 29.3084 82.3456 29.2711 82.1593 29.2711C81.9731 29.2711 81.8082 29.3084 81.6538 29.3891C81.4995 29.4698 81.3665 29.5815 81.2548 29.7305C81.143 29.8795 81.0525 30.0596 80.994 30.2706C80.9354 30.4817 80.9035 30.7176 80.9035 30.9783Z" fill="#006086"/>
<path d="M88.1304 31.3445V32.4061C88.1304 32.5117 88.141 32.6048 88.157 32.6793C88.1729 32.7538 88.1995 32.822 88.2261 32.8779C88.2527 32.9338 88.274 32.9773 88.2953 33.0021C88.3166 33.0331 88.3272 33.0455 88.3326 33.0517H87.3002C87.3056 33.0517 87.3162 33.0393 87.3375 33.0083C87.3588 32.9773 87.3801 32.94 87.4067 32.8841C87.4333 32.8345 87.4546 32.7662 87.4759 32.6855C87.4971 32.6048 87.5078 32.5116 87.5078 32.3999V29.4945C87.5078 29.389 87.4971 29.2959 87.4759 29.2214C87.4546 29.1407 87.4333 29.0786 87.4067 29.0227C87.3854 28.9668 87.3588 28.9234 87.3375 28.8985C87.3109 28.8675 87.3002 28.8551 87.2949 28.8489H88.4337C88.6518 28.8489 88.8541 28.8737 89.0403 28.9172C89.2265 28.9668 89.3915 29.0413 89.5245 29.1469C89.6575 29.2524 89.764 29.3828 89.8438 29.5442C89.9236 29.7056 89.9609 29.8918 89.9609 30.1091C89.9609 30.2395 89.9396 30.3637 89.9023 30.4878C89.8651 30.612 89.8118 30.7237 89.748 30.823C89.6841 30.9224 89.6043 31.0093 89.5085 31.0776C89.4181 31.1459 89.3117 31.2017 89.1999 31.2328L89.9662 32.5303C90.0513 32.6855 90.1471 32.8034 90.2535 32.8841C90.3599 32.9648 90.4291 33.0207 90.4664 33.0455H89.2265C89.2425 33.0331 89.2584 33.0145 89.2797 32.9897C89.301 32.9648 89.317 32.9338 89.3276 32.8903C89.3383 32.8531 89.3383 32.7972 89.3223 32.7413C89.3117 32.6793 89.2797 32.611 89.2319 32.5303L88.5082 31.3321H88.1304V31.3445ZM88.1304 29.3331V30.8913H88.3804C88.6837 30.8913 88.9019 30.8168 89.0509 30.6616C89.1946 30.5064 89.2691 30.3264 89.2691 30.1215C89.2691 29.8484 89.1999 29.6435 89.0616 29.5193C88.9232 29.3952 88.721 29.3331 88.4549 29.3331H88.1304Z" fill="#006086"/>
<path d="M96.1013 31.5805H94.6859L94.4092 32.4062C94.3666 32.5241 94.3506 32.6234 94.3506 32.7041C94.3506 32.7848 94.3719 32.8531 94.3985 32.9028C94.4251 32.9525 94.4517 32.9897 94.4783 33.0145C94.5049 33.0394 94.5209 33.0518 94.5262 33.058H93.4673C93.4726 33.0518 93.4886 33.0394 93.5258 33.0083C93.5578 32.9773 93.595 32.94 93.6376 32.8842C93.6801 32.8283 93.7227 32.76 93.7706 32.6855C93.8185 32.611 93.8558 32.5179 93.893 32.4124L94.8987 29.5132C94.92 29.4697 94.9306 29.4201 94.9413 29.358C94.9519 29.2959 94.9519 29.2338 94.9466 29.1779C94.9413 29.1159 94.92 29.06 94.8934 29.0041C94.8668 28.9482 94.8242 28.8986 94.7657 28.8613H95.7767C95.798 28.9296 95.8299 29.0165 95.8672 29.1097C95.9044 29.2028 95.9576 29.3332 96.0215 29.4946C96.0853 29.656 96.1705 29.8733 96.2716 30.134C96.3727 30.4009 96.4898 30.7175 96.6228 31.09C96.7611 31.4625 96.9208 31.9033 97.1017 32.4124C97.1389 32.5179 97.1815 32.611 97.2241 32.6855C97.2666 32.76 97.3145 32.8283 97.3571 32.8842C97.3997 32.9338 97.4369 32.9773 97.4635 33.0083C97.4901 33.0394 97.5114 33.058 97.5221 33.0642H96.3035C96.3035 33.058 96.3141 33.0456 96.3408 33.027C96.3674 33.0083 96.3886 32.9711 96.4099 32.9214C96.4312 32.8718 96.4419 32.8035 96.4419 32.7228C96.4419 32.6421 96.4259 32.5427 96.3833 32.4186L96.1013 31.5805ZM94.8348 31.1273H95.9363L95.3723 29.5877L94.8348 31.1273Z" fill="#006086"/>
<path d="M100.034 28.8552H103.083L103.099 29.6312C103.067 29.5816 103.029 29.5381 102.997 29.5009C102.96 29.4636 102.918 29.4326 102.864 29.4015C102.811 29.3767 102.753 29.3581 102.678 29.3456C102.604 29.3332 102.519 29.327 102.412 29.327H101.869V32.4C101.869 32.5056 101.88 32.5987 101.896 32.6732C101.917 32.7539 101.939 32.816 101.965 32.8719C101.992 32.9277 102.013 32.9712 102.034 32.996C102.056 33.027 102.066 33.0395 102.072 33.0457H101.039C101.045 33.0457 101.055 33.0333 101.077 33.0022C101.098 32.9712 101.119 32.9339 101.146 32.8781C101.172 32.8284 101.194 32.7601 101.215 32.6794C101.236 32.5987 101.247 32.5056 101.247 32.3938V29.3208H100.704C100.497 29.3208 100.347 29.3457 100.252 29.3953C100.156 29.445 100.081 29.5195 100.018 29.6188L100.034 28.8552Z" fill="#006086"/>
<path d="M108.564 33.058H106.196C106.201 33.058 106.212 33.0455 106.233 33.0145C106.254 32.9835 106.276 32.9462 106.302 32.8903C106.329 32.8407 106.35 32.7724 106.371 32.6917C106.393 32.611 106.403 32.5179 106.403 32.4061V29.5007C106.403 29.389 106.393 29.2959 106.371 29.2152C106.35 29.1344 106.324 29.0662 106.302 29.0165C106.276 28.9668 106.254 28.9234 106.233 28.8923C106.212 28.8613 106.201 28.8489 106.196 28.8489H108.574L108.612 29.6001C108.564 29.5131 108.489 29.4449 108.393 29.4014C108.292 29.3517 108.138 29.3331 107.925 29.3331H107.026V30.6678H107.941C108.026 30.6678 108.101 30.6554 108.159 30.6368C108.218 30.6182 108.271 30.5933 108.314 30.5685C108.356 30.5437 108.388 30.5189 108.415 30.5002C108.436 30.4754 108.452 30.463 108.457 30.4568V31.3259C108.452 31.3197 108.441 31.3073 108.42 31.2887C108.399 31.27 108.367 31.2452 108.324 31.2204C108.282 31.1955 108.229 31.1769 108.165 31.1521C108.101 31.1334 108.026 31.121 107.941 31.121H107.026V32.5861H107.925C108.032 32.5861 108.117 32.5799 108.191 32.5675C108.266 32.5551 108.324 32.5365 108.377 32.5116C108.431 32.4868 108.473 32.4558 108.511 32.4185C108.548 32.3813 108.58 32.3378 108.612 32.2882L108.564 33.058Z" fill="#006086"/>
<path d="M111.804 33.0581C111.809 33.0581 111.82 33.0457 111.841 33.0146C111.863 32.9836 111.884 32.9464 111.911 32.8905C111.937 32.8408 111.958 32.7725 111.98 32.6918C112.001 32.6111 112.012 32.518 112.012 32.4063V29.5009C112.012 29.3953 112.001 29.3022 111.98 29.2277C111.958 29.147 111.937 29.0849 111.911 29.0291C111.889 28.9732 111.863 28.9297 111.841 28.9049C111.82 28.8738 111.804 28.8614 111.799 28.8552H113.257C113.528 28.8552 113.784 28.8987 114.023 28.9918C114.263 29.0849 114.47 29.2215 114.646 29.4015C114.821 29.5816 114.965 29.7988 115.066 30.0658C115.167 30.3327 115.22 30.6369 115.22 30.9846C115.22 31.3074 115.167 31.5992 115.066 31.8537C114.96 32.1083 114.821 32.3255 114.646 32.5056C114.47 32.6856 114.263 32.8222 114.023 32.9153C113.784 33.0084 113.528 33.0581 113.257 33.0581H111.804ZM112.629 29.3332V32.5987H113.267C113.454 32.5987 113.624 32.5614 113.778 32.4869C113.933 32.4124 114.066 32.3007 114.172 32.1641C114.279 32.0213 114.364 31.8537 114.428 31.6551C114.486 31.4564 114.518 31.2329 114.518 30.9846C114.518 30.4569 114.401 30.0472 114.172 29.7616C113.943 29.476 113.64 29.3332 113.267 29.3332H112.629Z" fill="#006086"/>
<path d="M57.0594 19.8224H54.2551L53.7071 21.4924C53.6219 21.7345 53.5847 21.9331 53.5953 22.0945C53.6059 22.2559 53.6326 22.3925 53.6858 22.4919C53.739 22.5912 53.7922 22.6657 53.8454 22.7153C53.904 22.765 53.9359 22.7898 53.9412 22.8023H51.834C51.8446 22.7898 51.8819 22.7588 51.9457 22.7029C52.0096 22.6471 52.0841 22.5602 52.1692 22.4484C52.2544 22.3367 52.3395 22.2063 52.43 22.0449C52.5204 21.8897 52.6002 21.7034 52.6747 21.4924L54.6649 15.6443C54.7021 15.5574 54.7287 15.4519 54.75 15.3277C54.766 15.2036 54.7713 15.0794 54.7553 14.9615C54.7394 14.8435 54.7075 14.7255 54.6489 14.6076C54.5904 14.4896 54.5106 14.3965 54.3988 14.322H56.4049C56.4528 14.4648 56.5113 14.6324 56.5858 14.8187C56.6603 15.0049 56.7614 15.2656 56.8945 15.5947C57.0275 15.9237 57.1871 16.3583 57.384 16.8922C57.5809 17.4261 57.815 18.0655 58.0864 18.8229C58.3578 19.5741 58.6771 20.468 59.0389 21.4924C59.1134 21.7034 59.1932 21.8897 59.2837 22.0449C59.3741 22.2063 59.4593 22.3367 59.5444 22.4422C59.6296 22.5477 59.6988 22.6346 59.7573 22.6967C59.8158 22.7588 59.8531 22.7961 59.869 22.8023H57.4532C57.4532 22.7898 57.4798 22.765 57.533 22.7216C57.5862 22.6781 57.6288 22.6036 57.6661 22.5043C57.7033 22.4049 57.7246 22.2746 57.7299 22.107C57.7352 21.9455 57.6927 21.7345 57.6129 21.4861L57.0594 19.8224ZM54.5478 18.916H56.7348L55.6121 15.8058L54.5478 18.916Z" fill="#006086"/>
<path d="M66.4247 22.8023H65.7382C65.3285 22.2373 64.9613 21.7345 64.642 21.3061C64.3228 20.8716 63.9769 20.3998 63.6044 19.8907C63.2319 19.3754 62.8754 18.8912 62.5455 18.438C62.2102 17.9848 61.9282 17.5875 61.6888 17.2523C61.4493 16.917 61.3109 16.7059 61.2737 16.619V21.4986C61.2737 21.7097 61.295 21.8959 61.3323 22.0511C61.3695 22.2125 61.4121 22.3429 61.4653 22.4546C61.5185 22.5664 61.5611 22.6471 61.6036 22.7092C61.6462 22.765 61.6728 22.8023 61.6781 22.8085H59.8423C59.8529 22.8085 59.8795 22.7775 59.9221 22.7216C59.9647 22.6657 60.0126 22.585 60.0605 22.4795C60.1137 22.3739 60.1563 22.2373 60.1988 22.0759C60.2414 21.9145 60.2627 21.7221 60.2627 21.4986V15.6382C60.2627 15.4271 60.2414 15.2408 60.1988 15.0856C60.1563 14.9304 60.1137 14.7938 60.0658 14.6821C60.0179 14.5704 59.97 14.4897 59.9274 14.4276C59.8796 14.3717 59.8529 14.3345 59.8423 14.3282H61.1034C61.0928 14.3407 61.1886 14.471 61.3855 14.7256C61.5823 14.9801 61.8271 15.3091 62.1198 15.7064C62.4124 16.1038 62.7424 16.5445 63.1042 17.0163C63.466 17.4944 63.8066 17.9476 64.1259 18.3945C64.4505 18.8353 64.7272 19.2326 64.9666 19.5741C65.2061 19.9217 65.3604 20.1639 65.4349 20.3066V15.6382C65.4349 15.4271 65.4136 15.2408 65.371 15.0856C65.3285 14.9304 65.2859 14.7938 65.238 14.6821C65.1901 14.5704 65.1422 14.4897 65.0997 14.4276C65.0518 14.3717 65.0252 14.3345 65.0145 14.3282H66.8397C66.8291 14.3407 66.8024 14.3717 66.7652 14.4276C66.7226 14.4835 66.6747 14.5642 66.6268 14.6697C66.5736 14.7752 66.5311 14.9118 66.4938 15.0732C66.4566 15.2346 66.4353 15.4209 66.4353 15.6319L66.4247 22.8023Z" fill="#006086"/>
<path d="M72.0599 19.8224H69.2556L68.7076 21.4924C68.6224 21.7345 68.5852 21.9331 68.5958 22.0945C68.6064 22.2559 68.6331 22.3925 68.6863 22.4919C68.7395 22.5912 68.7927 22.6657 68.8459 22.7153C68.9044 22.765 68.9364 22.7898 68.9417 22.8023H66.8345C66.8451 22.7898 66.8824 22.7588 66.9462 22.7029C67.0101 22.6471 67.0846 22.5602 67.1697 22.4484C67.2549 22.3367 67.34 22.2063 67.4304 22.0449C67.5209 21.8897 67.6007 21.7034 67.6752 21.4924L69.6654 15.6443C69.7026 15.5574 69.7292 15.4519 69.7505 15.3277C69.7665 15.2036 69.7718 15.0794 69.7558 14.9615C69.7399 14.8435 69.708 14.7255 69.6494 14.6076C69.5909 14.4896 69.511 14.3965 69.3993 14.322H71.4054C71.4533 14.4648 71.5118 14.6324 71.5863 14.8187C71.6608 15.0049 71.7619 15.2656 71.895 15.5947C72.028 15.9237 72.1876 16.3583 72.3845 16.8922C72.5814 17.4261 72.8155 18.0655 73.0869 18.8229C73.3583 19.5741 73.6776 20.468 74.0394 21.4924C74.1139 21.7034 74.1937 21.8897 74.2842 22.0449C74.3746 22.2063 74.4598 22.3367 74.5449 22.4422C74.6301 22.5477 74.6992 22.6346 74.7578 22.6967C74.8163 22.7588 74.8536 22.7961 74.8695 22.8023H72.4537C72.4537 22.7898 72.4803 22.765 72.5335 22.7216C72.5867 22.6781 72.6293 22.6036 72.6665 22.5043C72.7038 22.4049 72.7251 22.2746 72.7304 22.107C72.7357 21.9455 72.6931 21.7345 72.6133 21.4861L72.0599 19.8224ZM69.5483 18.916H71.7353L70.6126 15.8058L69.5483 18.916Z" fill="#006086"/>
<path d="M80.973 22.0387C80.6164 22.3367 80.1695 22.5539 79.632 22.6843C79.0946 22.8209 78.5518 22.883 78.009 22.883C77.4876 22.883 76.9821 22.7836 76.4925 22.5788C76.0083 22.3801 75.5773 22.0945 75.1995 21.7221C74.827 21.3496 74.529 20.9026 74.3055 20.3749C74.0873 19.8472 73.9756 19.2574 73.9756 18.6056C73.9756 17.9041 74.1033 17.2833 74.3534 16.7308C74.6035 16.1844 74.9387 15.725 75.3591 15.3464C75.7741 14.9739 76.2424 14.6883 76.7639 14.4896C77.2854 14.291 77.8122 14.1917 78.3443 14.1917C78.8977 14.1917 79.3553 14.2413 79.7278 14.3344C80.095 14.4276 80.3876 14.5331 80.6058 14.6511V15.992C80.4462 15.7126 80.1907 15.4953 79.8342 15.3339C79.4777 15.1725 79.0307 15.098 78.488 15.098C78.0676 15.098 77.6738 15.1849 77.3066 15.3526C76.9395 15.5202 76.6202 15.7561 76.3435 16.0603C76.0668 16.3645 75.8486 16.7308 75.689 17.1591C75.5294 17.5937 75.4495 18.0717 75.4495 18.5994C75.4495 19.096 75.524 19.5554 75.673 19.9714C75.822 20.3873 76.0242 20.7474 76.2743 21.0454C76.5244 21.3434 76.8171 21.5731 77.1523 21.7469C77.4823 21.9145 77.8335 22.0014 78.1953 22.0014C78.456 22.0014 78.7221 21.9704 78.9935 21.9083C79.2649 21.8462 79.5149 21.7531 79.7384 21.6289V19.841C79.7384 19.6299 79.7172 19.4499 79.6746 19.3071C79.632 19.1643 79.5894 19.0464 79.5416 18.9533C79.4937 18.8601 79.4458 18.7918 79.4032 18.7546C79.3553 18.7111 79.3287 18.6863 79.3181 18.6739H81.3667C81.3561 18.6863 81.3295 18.7049 81.2923 18.7484C81.2497 18.7856 81.2018 18.8539 81.1539 18.9408C81.1007 19.034 81.0581 19.1519 81.0209 19.3009C80.9836 19.4499 80.9623 19.6299 80.9623 19.841V22.0387H80.973Z" fill="#006086"/>
<path d="M86.5072 22.8023H81.8086C81.8192 22.8023 81.8459 22.7712 81.8831 22.7153C81.9257 22.6595 81.9736 22.5788 82.0215 22.4732C82.0747 22.3677 82.1172 22.2311 82.1598 22.0697C82.2023 21.9083 82.2237 21.7158 82.2237 21.4924V15.6319C82.2237 15.4084 82.2023 15.2222 82.1598 15.0546C82.1172 14.8932 82.0693 14.7566 82.0215 14.651C81.9682 14.5455 81.9257 14.4648 81.8831 14.4089C81.8405 14.3531 81.8139 14.322 81.8086 14.322H86.5232L86.5924 15.8368C86.4966 15.663 86.3529 15.5326 86.156 15.4333C85.9591 15.3401 85.6505 15.2905 85.2301 15.2905H83.4475V17.9848H85.2567C85.427 17.9848 85.5707 17.9662 85.6931 17.9227C85.8155 17.8792 85.9166 17.8358 86.0017 17.7861C86.0869 17.7365 86.1507 17.693 86.1986 17.6433C86.2465 17.5937 86.2731 17.5688 86.2837 17.5564V19.3133C86.2731 19.3009 86.2465 19.2761 86.2093 19.2326C86.1667 19.1892 86.1028 19.1457 86.0177 19.096C85.9325 19.0464 85.8261 19.0029 85.7037 18.9595C85.576 18.916 85.4323 18.8974 85.2621 18.8974H83.4529V21.8462H85.2355C85.443 21.8462 85.6186 21.8338 85.7623 21.809C85.9059 21.7841 86.0336 21.7469 86.1347 21.691C86.2358 21.6414 86.3263 21.5731 86.3955 21.5048C86.4647 21.4303 86.5338 21.3434 86.5977 21.2378L86.5072 22.8023Z" fill="#006086"/>
<path d="M88.646 14.6324C88.7577 14.8311 88.9387 15.1663 89.1941 15.6381C89.4442 16.1162 89.7741 16.7494 90.1785 17.5502C90.5829 18.3511 91.0672 19.3568 91.6365 20.5674C92.1154 19.4561 92.5252 18.5063 92.8764 17.7178C93.2276 16.9294 93.5149 16.29 93.7384 15.7871C93.9619 15.2905 94.1269 14.918 94.2386 14.6883C94.345 14.4524 94.3929 14.3282 94.3876 14.322H95.9574C95.9467 14.3344 95.9201 14.3655 95.8722 14.4213C95.8243 14.4772 95.7764 14.5641 95.7339 14.6759C95.6913 14.7876 95.6434 14.918 95.6008 15.0794C95.5583 15.2408 95.537 15.4209 95.537 15.6319V21.4924C95.537 21.7158 95.5583 21.9083 95.6008 22.0697C95.6434 22.2311 95.6913 22.3677 95.7392 22.4732C95.7924 22.5788 95.835 22.6595 95.8776 22.7153C95.9201 22.7712 95.9467 22.8023 95.9574 22.8023H93.9087C93.9193 22.7898 93.946 22.7588 93.9885 22.7029C94.0311 22.6471 94.079 22.5602 94.1269 22.4484C94.1801 22.3367 94.2227 22.2063 94.2599 22.0449C94.2972 21.8897 94.3184 21.7034 94.3184 21.4924V16.9853C94.0098 17.6309 93.7171 18.2642 93.4351 18.8912C93.1531 19.5182 92.903 20.1017 92.6795 20.6356C92.456 21.1695 92.2644 21.6289 92.1101 22.0076C91.9558 22.3925 91.8494 22.6533 91.7962 22.8023H91.2747C91.2374 22.7091 91.147 22.5167 91.0086 22.2249C90.8703 21.9393 90.7 21.6041 90.5084 21.2192C90.3169 20.8343 90.1094 20.4246 89.8912 19.99C89.673 19.5554 89.4655 19.1333 89.2686 18.736C89.0717 18.3387 88.8961 17.9848 88.7365 17.6682C88.5769 17.3578 88.4704 17.1281 88.4119 16.9853V21.4924C88.4119 21.7034 88.4332 21.8897 88.4704 22.0449C88.5077 22.2063 88.5502 22.3367 88.6035 22.4484C88.6567 22.5602 88.6992 22.6409 88.7418 22.7029C88.7844 22.7588 88.811 22.7961 88.8163 22.8023H87.0337C87.0443 22.8023 87.0709 22.7712 87.1135 22.7153C87.1561 22.6595 87.204 22.5788 87.2518 22.4732C87.3051 22.3677 87.3476 22.2311 87.3902 22.0697C87.4328 21.9083 87.4541 21.7158 87.4541 21.4924V15.6319C87.4541 15.4209 87.4328 15.2346 87.3902 15.0794C87.3476 14.9242 87.3051 14.7876 87.2572 14.6759C87.2093 14.5641 87.1614 14.4834 87.1188 14.4213C87.0762 14.3593 87.0443 14.3282 87.0337 14.322H88.4917C88.4811 14.3344 88.5343 14.4338 88.646 14.6324Z" fill="#006086"/>
<path d="M101.252 22.8023H96.5537C96.5644 22.8023 96.5909 22.7712 96.6282 22.7153C96.6708 22.6595 96.7186 22.5788 96.7665 22.4732C96.8198 22.3677 96.8623 22.2311 96.9049 22.0697C96.9475 21.9083 96.9687 21.7158 96.9687 21.4924V15.6319C96.9687 15.4084 96.9475 15.2222 96.9049 15.0546C96.8623 14.8932 96.8144 14.7566 96.7665 14.651C96.7133 14.5455 96.6708 14.4648 96.6282 14.4089C96.5856 14.3531 96.559 14.322 96.5537 14.322H101.268L101.337 15.8368C101.242 15.663 101.098 15.5326 100.901 15.4333C100.704 15.3401 100.396 15.2905 99.9752 15.2905H98.1926V17.9848H100.002C100.172 17.9848 100.316 17.9662 100.438 17.9227C100.561 17.8792 100.662 17.8358 100.747 17.7861C100.832 17.7365 100.896 17.693 100.944 17.6433C100.992 17.5937 101.018 17.5688 101.029 17.5564V19.3133C101.018 19.3009 100.992 19.2761 100.954 19.2326C100.912 19.1892 100.848 19.1457 100.763 19.096C100.678 19.0464 100.571 19.0029 100.449 18.9595C100.321 18.916 100.177 18.8974 100.007 18.8974H98.1979V21.8462H99.9806C100.188 21.8462 100.364 21.8338 100.507 21.809C100.651 21.7841 100.779 21.7469 100.88 21.691C100.981 21.6351 101.071 21.5731 101.141 21.5048C101.21 21.4303 101.279 21.3434 101.343 21.2378L101.252 22.8023Z" fill="#006086"/>
<path d="M108.335 22.8023H107.648C107.239 22.2373 106.871 21.7345 106.552 21.3061C106.233 20.8716 105.887 20.3998 105.515 19.8907C105.142 19.3754 104.786 18.8912 104.456 18.438C104.12 17.9848 103.838 17.5875 103.599 17.2523C103.359 16.917 103.221 16.7059 103.184 16.619V21.4986C103.184 21.7097 103.205 21.8959 103.242 22.0511C103.28 22.2125 103.322 22.3429 103.375 22.4546C103.429 22.5664 103.471 22.6471 103.514 22.7092C103.556 22.765 103.583 22.8023 103.588 22.8085H101.752C101.763 22.8085 101.79 22.7775 101.832 22.7216C101.875 22.6657 101.923 22.585 101.971 22.4795C102.024 22.3739 102.066 22.2373 102.109 22.0759C102.152 21.9145 102.173 21.7221 102.173 21.4986V15.6382C102.173 15.4271 102.152 15.2408 102.109 15.0856C102.066 14.9304 102.024 14.7938 101.976 14.6821C101.928 14.5704 101.88 14.4897 101.838 14.4276C101.795 14.3655 101.763 14.3345 101.752 14.3282H103.014C103.003 14.3407 103.099 14.471 103.296 14.7256C103.492 14.9801 103.737 15.3091 104.03 15.7064C104.323 16.1038 104.653 16.5445 105.014 17.0163C105.376 17.4944 105.717 17.9476 106.036 18.3945C106.361 18.8353 106.637 19.2326 106.877 19.5741C107.116 19.9155 107.271 20.1639 107.345 20.3066V15.6382C107.345 15.4271 107.324 15.2408 107.281 15.0856C107.239 14.9304 107.196 14.7938 107.148 14.6821C107.1 14.5704 107.052 14.4897 107.01 14.4276C106.962 14.3717 106.935 14.3345 106.925 14.3282H108.75C108.739 14.3407 108.713 14.3717 108.675 14.4276C108.633 14.4835 108.585 14.5642 108.537 14.6697C108.484 14.7752 108.441 14.9118 108.404 15.0732C108.367 15.2346 108.345 15.4209 108.345 15.6319L108.335 22.8023Z" fill="#006086"/>
<path d="M108.899 14.322H114.949L114.976 15.8927C114.912 15.7995 114.842 15.7126 114.773 15.6319C114.704 15.5574 114.619 15.4891 114.513 15.4395C114.406 15.3898 114.284 15.3464 114.14 15.3215C113.996 15.2967 113.821 15.2843 113.613 15.2843H112.533V21.4924C112.533 21.7034 112.549 21.8897 112.592 22.0449C112.629 22.2063 112.671 22.3367 112.725 22.4484C112.778 22.5602 112.82 22.6409 112.863 22.7029C112.906 22.7588 112.932 22.7961 112.943 22.8023H110.894C110.905 22.8023 110.931 22.7712 110.974 22.7153C111.017 22.6595 111.064 22.5788 111.112 22.4732C111.166 22.3677 111.208 22.2311 111.251 22.0697C111.293 21.9083 111.315 21.7158 111.315 21.4924V15.2843H110.234C109.825 15.2843 109.521 15.3339 109.335 15.4333C109.149 15.5326 108.994 15.6878 108.872 15.8865L108.899 14.322Z" fill="#006086"/>
<path d="M121.069 20.7723C121.069 20.5612 121.031 20.3812 120.957 20.226C120.882 20.0708 120.776 19.9342 120.643 19.81C120.51 19.6859 120.356 19.5741 120.18 19.4686C120.004 19.3692 119.818 19.2699 119.616 19.1706C119.339 19.034 119.062 18.885 118.78 18.7112C118.498 18.5374 118.248 18.3387 118.025 18.1152C117.801 17.8917 117.62 17.6372 117.482 17.3516C117.344 17.066 117.275 16.7494 117.275 16.3956C117.275 16.079 117.338 15.7872 117.466 15.5264C117.594 15.2657 117.775 15.0298 118.009 14.8373C118.243 14.6387 118.514 14.4897 118.828 14.3779C119.142 14.2662 119.483 14.2103 119.855 14.2103C120.377 14.2103 120.808 14.26 121.148 14.3531C121.484 14.4462 121.755 14.5518 121.957 14.6697V16.0107C121.845 15.7624 121.627 15.5513 121.308 15.3775C120.989 15.2036 120.611 15.1167 120.175 15.1167C119.653 15.1167 119.265 15.2285 119.009 15.4457C118.759 15.6692 118.631 15.9175 118.631 16.1969C118.631 16.3707 118.679 16.5259 118.77 16.6749C118.86 16.8177 118.977 16.9543 119.126 17.0847C119.275 17.215 119.446 17.3392 119.642 17.4509C119.839 17.5689 120.036 17.6806 120.233 17.7986C120.536 17.9724 120.824 18.1463 121.09 18.3325C121.356 18.5125 121.585 18.7112 121.782 18.9285C121.978 19.1458 122.133 19.3879 122.245 19.6548C122.356 19.9218 122.415 20.2322 122.415 20.5736C122.415 20.9151 122.346 21.2379 122.202 21.5297C122.058 21.8214 121.861 22.076 121.601 22.287C121.345 22.4981 121.042 22.6657 120.696 22.7837C120.35 22.9016 119.972 22.9637 119.563 22.9637C119.02 22.9637 118.573 22.9141 118.216 22.8209C117.86 22.7278 117.578 22.6161 117.365 22.5043L117.237 21.0082C117.312 21.1448 117.424 21.2751 117.573 21.4055C117.722 21.5359 117.886 21.6476 118.078 21.7407C118.27 21.8339 118.472 21.9146 118.685 21.9704C118.898 22.0263 119.11 22.0573 119.318 22.0573C119.605 22.0573 119.855 22.0201 120.068 21.9394C120.281 21.8649 120.467 21.7656 120.616 21.6414C120.765 21.5172 120.882 21.3869 120.957 21.2317C121.031 21.0827 121.069 20.9275 121.069 20.7723Z" fill="#006086"/>
<path d="M127.624 22.8023H122.84C122.851 22.8023 122.878 22.7712 122.92 22.7153C122.963 22.6595 123.011 22.5788 123.064 22.4732C123.117 22.3677 123.165 22.2311 123.207 22.0697C123.25 21.9083 123.271 21.7158 123.271 21.4924V15.6319C123.271 15.4084 123.25 15.2222 123.207 15.0546C123.165 14.8932 123.117 14.7566 123.064 14.651C123.011 14.5455 122.963 14.4648 122.92 14.4089C122.878 14.3531 122.851 14.322 122.84 14.322H127.635L127.704 15.8368C127.608 15.663 127.459 15.5326 127.262 15.4333C127.06 15.3401 126.746 15.2905 126.32 15.2905H124.506V17.9848H126.347C126.517 17.9848 126.666 17.9662 126.789 17.9227C126.911 17.8792 127.017 17.8358 127.103 17.7861C127.188 17.7365 127.257 17.693 127.305 17.6433C127.353 17.5937 127.379 17.5688 127.39 17.5564V19.3133C127.379 19.3009 127.353 19.2761 127.31 19.2326C127.268 19.1892 127.204 19.1457 127.119 19.096C127.033 19.0464 126.927 19.0029 126.799 18.9595C126.672 18.916 126.523 18.8974 126.347 18.8974H124.506V21.8462H126.32C126.528 21.8462 126.709 21.8338 126.858 21.809C127.007 21.7841 127.129 21.7469 127.236 21.691C127.342 21.6414 127.427 21.5731 127.502 21.5048C127.571 21.4303 127.64 21.3434 127.709 21.2378L127.624 22.8023Z" fill="#006086"/>
<path d="M129.88 19.3506V21.4986C129.88 21.7097 129.902 21.8959 129.939 22.0511C129.976 22.2125 130.024 22.3429 130.072 22.4546C130.125 22.5664 130.173 22.6471 130.216 22.7092C130.258 22.765 130.285 22.8023 130.295 22.8085H128.209C128.22 22.8085 128.247 22.7775 128.289 22.7216C128.332 22.6657 128.38 22.585 128.433 22.4795C128.486 22.3739 128.534 22.2373 128.577 22.0759C128.619 21.9145 128.64 21.7221 128.64 21.4986V15.6382C128.64 15.4271 128.619 15.2408 128.577 15.0856C128.534 14.9304 128.486 14.7938 128.438 14.6821C128.39 14.5704 128.342 14.4897 128.295 14.4276C128.247 14.3717 128.22 14.3345 128.209 14.3282H130.508C130.945 14.3282 131.354 14.3779 131.737 14.471C132.121 14.5642 132.445 14.7194 132.717 14.9304C132.988 15.1415 133.201 15.4085 133.36 15.7313C133.52 16.0541 133.595 16.4328 133.595 16.8736C133.595 17.1343 133.557 17.3888 133.483 17.6372C133.408 17.8855 133.302 18.1152 133.169 18.3138C133.036 18.5125 132.876 18.6863 132.69 18.8291C132.504 18.9719 132.296 19.0774 132.067 19.1457L133.61 21.7655C133.781 22.0759 133.972 22.3118 134.191 22.4795C134.403 22.6471 134.547 22.7526 134.627 22.8023H132.131C132.158 22.7712 132.195 22.734 132.238 22.6843C132.28 22.6347 132.312 22.5726 132.328 22.4919C132.349 22.4112 132.344 22.3118 132.323 22.1877C132.301 22.0697 132.238 21.9269 132.142 21.7655L130.684 19.3444H129.88V19.3506ZM129.88 15.2905V18.4318H130.381C130.987 18.4318 131.439 18.2766 131.727 17.9724C132.019 17.6682 132.163 17.3019 132.163 16.8798C132.163 16.321 132.025 15.9175 131.748 15.6692C131.471 15.4209 131.062 15.2967 130.519 15.2967H129.88V15.2905Z" fill="#006086"/>
<path d="M137.681 20.8157L139.623 15.6319C139.698 15.4209 139.735 15.2346 139.735 15.0732C139.735 14.9118 139.719 14.7752 139.692 14.6697C139.666 14.5642 139.629 14.4835 139.586 14.4276C139.543 14.3717 139.517 14.3345 139.506 14.3282H141.507C141.486 14.3407 141.448 14.3717 141.395 14.4338C141.337 14.4959 141.268 14.5828 141.182 14.6883C141.097 14.7939 141.007 14.9242 140.916 15.0856C140.826 15.247 140.735 15.4271 140.65 15.6382C140.241 16.7059 139.889 17.6185 139.591 18.3883C139.293 19.1581 139.043 19.8038 138.836 20.3315C138.628 20.8592 138.458 21.2875 138.33 21.6103C138.203 21.9394 138.107 22.1877 138.038 22.3615C137.968 22.5353 137.926 22.6533 137.899 22.7154C137.878 22.7774 137.867 22.8085 137.878 22.8085H137.064C137.027 22.6843 136.973 22.5353 136.899 22.3553C136.83 22.1753 136.729 21.9269 136.601 21.6041C136.473 21.2813 136.308 20.8592 136.101 20.3315C135.898 19.8038 135.648 19.1581 135.35 18.3883C135.052 17.6185 134.701 16.7059 134.291 15.6382C134.132 15.2284 133.956 14.9118 133.77 14.6883C133.584 14.4648 133.477 14.3469 133.451 14.3282H135.851C135.851 14.3407 135.829 14.3717 135.787 14.4276C135.744 14.4835 135.707 14.5642 135.68 14.6697C135.654 14.7752 135.638 14.9118 135.638 15.0732C135.638 15.2346 135.675 15.4209 135.755 15.6319L137.681 20.8157Z" fill="#006086"/>
<path d="M143.508 21.4924C143.508 21.7034 143.53 21.8897 143.567 22.0449C143.604 22.2063 143.652 22.3367 143.7 22.4484C143.753 22.5602 143.801 22.6409 143.844 22.7029C143.886 22.7588 143.913 22.7961 143.923 22.8023H141.837C141.848 22.8023 141.875 22.7712 141.917 22.7153C141.96 22.6595 142.008 22.5788 142.061 22.4732C142.114 22.3677 142.162 22.2311 142.205 22.0697C142.247 21.9083 142.268 21.7158 142.268 21.4924V15.6319C142.268 15.4209 142.247 15.2346 142.205 15.0794C142.162 14.9242 142.114 14.7876 142.066 14.6759C142.018 14.5641 141.97 14.4834 141.923 14.4213C141.875 14.3655 141.848 14.3282 141.837 14.322H143.923C143.913 14.3344 143.886 14.3655 143.844 14.4213C143.801 14.4772 143.753 14.5579 143.7 14.6635C143.647 14.769 143.604 14.9056 143.567 15.067C143.53 15.2284 143.508 15.4146 143.508 15.6257V21.4924Z" fill="#006086"/>
<path d="M145.807 18.6118C145.807 19.1085 145.887 19.5679 146.041 19.9838C146.195 20.3998 146.408 20.7598 146.669 21.0578C146.929 21.3558 147.233 21.5855 147.573 21.7593C147.914 21.927 148.265 22.0139 148.632 22.0139C148.84 22.0139 149.058 21.9952 149.276 21.9518C149.494 21.9083 149.702 21.8463 149.904 21.7718C150.106 21.6973 150.282 21.5979 150.447 21.4738C150.606 21.3558 150.739 21.213 150.846 21.0516V22.3615C150.569 22.5354 150.218 22.6657 149.787 22.7588C149.361 22.852 148.904 22.8954 148.414 22.8954C147.882 22.8954 147.366 22.7961 146.871 22.5912C146.376 22.3926 145.94 22.107 145.557 21.7345C145.173 21.362 144.87 20.915 144.641 20.3874C144.413 19.8597 144.301 19.2699 144.301 18.6181C144.301 17.9165 144.418 17.2957 144.657 16.7432C144.897 16.1969 145.211 15.7375 145.599 15.3588C145.988 14.9863 146.435 14.7007 146.935 14.5021C147.435 14.3034 147.94 14.2041 148.457 14.2041C149.015 14.2041 149.489 14.2538 149.861 14.3469C150.239 14.44 150.532 14.5455 150.755 14.6635V16.0044C150.596 15.7251 150.33 15.5078 149.968 15.3464C149.606 15.185 149.148 15.1105 148.595 15.1105C148.207 15.1105 147.839 15.1974 147.504 15.365C147.169 15.5326 146.871 15.7685 146.621 16.0727C146.371 16.3769 146.169 16.7432 146.02 17.1716C145.881 17.6061 145.807 18.0841 145.807 18.6118Z" fill="#006086"/>
<path d="M156.114 22.8023H151.33C151.341 22.8023 151.367 22.7712 151.41 22.7153C151.452 22.6595 151.5 22.5788 151.554 22.4732C151.607 22.3677 151.655 22.2311 151.697 22.0697C151.74 21.9083 151.761 21.7158 151.761 21.4924V15.6319C151.761 15.4084 151.74 15.2222 151.697 15.0546C151.655 14.8932 151.607 14.7566 151.554 14.651C151.5 14.5455 151.452 14.4648 151.41 14.4089C151.367 14.3531 151.341 14.322 151.33 14.322H156.124L156.194 15.8368C156.098 15.663 155.949 15.5326 155.752 15.4333C155.55 15.3401 155.236 15.2905 154.81 15.2905H152.996V17.9848H154.837C155.007 17.9848 155.156 17.9662 155.278 17.9227C155.401 17.8792 155.507 17.8358 155.592 17.7861C155.677 17.7365 155.747 17.693 155.795 17.6433C155.842 17.5937 155.869 17.5688 155.88 17.5564V19.3133C155.869 19.3009 155.842 19.2761 155.8 19.2326C155.757 19.1892 155.693 19.1457 155.608 19.096C155.523 19.0464 155.417 19.0029 155.289 18.9595C155.161 18.916 155.012 18.8974 154.837 18.8974H152.996V21.8462H154.81C155.018 21.8462 155.199 21.8338 155.348 21.809C155.497 21.7841 155.619 21.7469 155.725 21.691C155.832 21.6414 155.917 21.5731 155.991 21.5048C156.061 21.4303 156.13 21.3434 156.199 21.2378L156.114 22.8023Z" fill="#006086"/>
<path d="M43.1072 1.50854H49.2053L49.2319 3.07919C49.1681 2.98607 49.0989 2.89916 49.0244 2.81845C48.9552 2.74395 48.8648 2.67566 48.7637 2.62599C48.6572 2.57633 48.5348 2.53288 48.3858 2.50805C48.2368 2.48321 48.0612 2.47079 47.8537 2.47079H46.7629V8.67888C46.7629 8.88995 46.7841 9.07619 46.8214 9.2314C46.8586 9.39281 46.9012 9.52318 46.9544 9.63493C47.0076 9.74667 47.0555 9.82738 47.0981 9.88946C47.1407 9.95154 47.1673 9.98258 47.1779 9.98878H45.1133C45.1239 9.98878 45.1505 9.95774 45.1931 9.90187C45.2357 9.846 45.2836 9.76529 45.3368 9.65976C45.39 9.55422 45.4379 9.41764 45.4804 9.25623C45.523 9.09482 45.5443 8.90237 45.5443 8.67888V2.47079H44.4534C44.0384 2.47079 43.7351 2.52046 43.5488 2.61979C43.3626 2.71912 43.203 2.87432 43.0806 3.07298L43.1072 1.50854Z" fill="#006086"/>
<path d="M51.3659 6.53723V8.68523C51.3659 8.89631 51.3872 9.08255 51.4244 9.23775C51.4617 9.39916 51.5042 9.52953 51.5575 9.64128C51.6107 9.75302 51.6585 9.83373 51.7011 9.89581C51.7437 9.95168 51.7703 9.98893 51.7809 9.99514H49.7163C49.727 9.99514 49.7536 9.9641 49.7961 9.90823C49.8387 9.85236 49.8866 9.77165 49.9398 9.66611C49.993 9.56058 50.0409 9.42399 50.0835 9.26258C50.126 9.10117 50.1473 8.90873 50.1473 8.68523V2.8248C50.1473 2.61372 50.126 2.42748 50.0835 2.27228C50.0409 2.11708 49.9983 1.98049 49.9504 1.86875C49.9026 1.757 49.8547 1.67631 49.8068 1.61422C49.7589 1.55835 49.7323 1.5211 49.7216 1.51489H51.9991C52.4354 1.51489 52.8399 1.56455 53.2177 1.65768C53.5955 1.7508 53.9201 1.906 54.1861 2.11708C54.4575 2.32815 54.665 2.5951 54.8247 2.91792C54.979 3.24074 55.0588 3.61944 55.0588 4.06021C55.0588 4.32095 55.0216 4.57548 54.9471 4.8238C54.8726 5.07213 54.7661 5.30182 54.6331 5.50048C54.5001 5.69914 54.3404 5.87297 54.1595 6.01576C53.9786 6.15854 53.7711 6.26408 53.5423 6.33236L55.0695 8.95218C55.2397 9.26258 55.4313 9.49849 55.6442 9.66611C55.857 9.83373 56.0007 9.93926 56.0752 9.98893H53.6008C53.6274 9.95789 53.6647 9.92064 53.7072 9.87097C53.7498 9.82131 53.7817 9.75923 53.7977 9.67852C53.819 9.59782 53.8136 9.49849 53.7923 9.37433C53.7711 9.25638 53.7126 9.11359 53.6168 8.95218L52.1747 6.53103H51.3659V6.53723ZM51.3659 2.47715V5.61844H51.8607C52.462 5.61844 52.909 5.46323 53.1964 5.15904C53.4837 4.85484 53.6274 4.48857 53.6274 4.06642C53.6274 3.50769 53.4891 3.10417 53.2177 2.85584C52.9463 2.60752 52.5365 2.48335 51.9991 2.48335H51.3659V2.47715Z" fill="#006086"/>
<path d="M58.2726 8.68523C58.2726 8.89631 58.2939 9.08255 58.3312 9.23775C58.3684 9.39916 58.411 9.52953 58.4642 9.64128C58.5174 9.75302 58.5653 9.83373 58.6079 9.89581C58.6505 9.95168 58.677 9.98893 58.6877 9.99514H56.623C56.6337 9.99514 56.6603 9.9641 56.7029 9.90823C56.7454 9.85236 56.7933 9.77165 56.8466 9.66611C56.8998 9.56058 56.9476 9.42399 56.9902 9.26258C57.0328 9.10117 57.0541 8.90873 57.0541 8.68523V2.8248C57.0541 2.61372 57.0328 2.42748 56.9902 2.27228C56.9476 2.11708 56.9051 1.98049 56.8572 1.86875C56.8093 1.757 56.7614 1.67631 56.7135 1.61422C56.6656 1.55835 56.639 1.5211 56.6284 1.51489H58.693C58.6824 1.52731 58.6557 1.55835 58.6132 1.61422C58.5706 1.6701 58.5227 1.7508 58.4695 1.85634C58.4163 1.96188 58.3737 2.09845 58.3365 2.25986C58.2992 2.42127 58.278 2.60752 58.278 2.81859V8.68523H58.2726Z" fill="#006086"/>
<path d="M65.9887 9.99504H65.2969C64.8819 9.4301 64.5147 8.92725 64.1954 8.49889C63.8762 8.06432 63.525 7.59251 63.1471 7.08345C62.7693 6.56817 62.4128 6.08395 62.0776 5.63076C61.7423 5.17757 61.455 4.78025 61.2155 4.44501C60.9761 4.10977 60.8378 3.89869 60.8005 3.81178V8.69134C60.8005 8.90241 60.8218 9.08866 60.859 9.24386C60.8963 9.40527 60.9388 9.53564 60.9921 9.64739C61.0453 9.75913 61.0932 9.83983 61.1357 9.90191C61.1783 9.96399 61.2049 9.99504 61.2155 10.0012H59.3638C59.3744 10.0012 59.401 9.9702 59.4436 9.91433C59.4861 9.85846 59.534 9.77775 59.5873 9.67222C59.6405 9.56668 59.6884 9.43011 59.7309 9.2687C59.7735 9.10728 59.7948 8.91483 59.7948 8.69134V2.8309C59.7948 2.61983 59.7735 2.43359 59.7309 2.27838C59.6884 2.12318 59.6458 1.98661 59.5979 1.87486C59.55 1.76312 59.5021 1.68241 59.4542 1.62033C59.4063 1.56445 59.3797 1.5272 59.3691 1.521H60.6408C60.6302 1.53341 60.726 1.66378 60.9229 1.91831C61.1198 2.17284 61.3699 2.50187 61.6679 2.89919C61.9659 3.29651 62.2958 3.73728 62.6576 4.2091C63.0194 4.68712 63.3653 5.14031 63.6899 5.58729C64.0145 6.02807 64.2965 6.42538 64.5413 6.76683C64.7808 7.11448 64.9404 7.3566 65.0149 7.49939V2.8309C65.0149 2.61983 64.9936 2.43359 64.951 2.27838C64.9085 2.12318 64.8659 1.98661 64.818 1.87486C64.7701 1.76312 64.7222 1.68241 64.6743 1.62033C64.6264 1.56445 64.5999 1.5272 64.5892 1.521H66.4303C66.4197 1.53341 66.3931 1.56445 66.3505 1.62033C66.308 1.6762 66.2601 1.75691 66.2068 1.86244C66.1536 1.96798 66.1111 2.10455 66.0738 2.26596C66.0366 2.42737 66.0153 2.61362 66.0153 2.8247L65.9887 9.99504Z" fill="#006086"/>
<path d="M68.7555 8.68523C68.7555 8.89631 68.7768 9.08255 68.8141 9.23775C68.8513 9.39916 68.8939 9.52953 68.9471 9.64128C69.0003 9.75302 69.0482 9.83373 69.0908 9.89581C69.1333 9.95168 69.1599 9.98893 69.1706 9.99514H67.106C67.1166 9.99514 67.1432 9.9641 67.1858 9.90823C67.2284 9.85236 67.2762 9.77165 67.3294 9.66611C67.3827 9.56058 67.4306 9.42399 67.4731 9.26258C67.5157 9.10117 67.537 8.90873 67.537 8.68523V2.8248C67.537 2.61372 67.5157 2.42748 67.4731 2.27228C67.4306 2.11708 67.388 1.98049 67.3401 1.86875C67.2922 1.757 67.2443 1.67631 67.1964 1.61422C67.1485 1.55835 67.1219 1.5211 67.1113 1.51489H69.1759C69.1653 1.52731 69.1387 1.55835 69.0961 1.61422C69.0535 1.6701 69.0056 1.7508 68.9524 1.85634C68.8992 1.96188 68.8567 2.09845 68.8194 2.25986C68.7822 2.42127 68.7608 2.60752 68.7608 2.81859V8.68523H68.7555Z" fill="#006086"/>
<path d="M69.5481 1.50854H75.6462L75.6728 3.07919C75.609 2.98607 75.5398 2.89916 75.4653 2.81845C75.3961 2.74395 75.3057 2.67566 75.2046 2.62599C75.0981 2.57633 74.9757 2.53288 74.8268 2.50805C74.6778 2.48321 74.5022 2.47079 74.2946 2.47079H73.2038V8.67888C73.2038 8.88995 73.2251 9.07619 73.2623 9.2314C73.2996 9.39281 73.3421 9.52318 73.3953 9.63493C73.4486 9.74667 73.4965 9.82738 73.539 9.88946C73.5816 9.95154 73.6082 9.98258 73.6188 9.98878H71.5542C71.5648 9.98878 71.5915 9.95774 71.634 9.90187C71.6766 9.846 71.7245 9.76529 71.7777 9.65976C71.8309 9.55422 71.8788 9.41764 71.9214 9.25623C71.9639 9.09482 71.9852 8.90237 71.9852 8.67888V2.47079H70.8944C70.4793 2.47079 70.176 2.52046 69.9898 2.61979C69.8035 2.71912 69.6439 2.87432 69.5215 3.07298L69.5481 1.50854Z" fill="#006086"/>
<path d="M80.1111 6.65519V8.68523C80.1111 8.89631 80.1324 9.08255 80.1696 9.23775C80.2069 9.39916 80.2548 9.52953 80.3027 9.64128C80.3559 9.75302 80.4038 9.83373 80.4463 9.89581C80.4889 9.95789 80.5155 9.98893 80.5262 9.99514H78.4615C78.4722 9.99514 78.4988 9.9641 78.5413 9.90823C78.5839 9.85236 78.6318 9.77165 78.685 9.66611C78.7382 9.56058 78.7861 9.42399 78.8287 9.26258C78.8713 9.10117 78.8926 8.90873 78.8926 8.68523V6.65519L76.5991 2.55164C76.4288 2.26607 76.2532 2.02396 76.0776 1.83772C75.8967 1.65147 75.7956 1.53972 75.7637 1.51489H78.1422C78.1422 1.52731 78.1263 1.55835 78.0997 1.60801C78.0731 1.65767 78.0518 1.73218 78.0358 1.8253C78.0198 1.91842 78.0252 2.02395 78.0411 2.14191C78.0624 2.25986 78.105 2.39644 78.1848 2.55164L79.8238 5.41977L81.2977 2.55164C81.3722 2.39644 81.4201 2.25986 81.4307 2.14191C81.4467 2.02395 81.4467 1.91842 81.4307 1.8253C81.4148 1.73218 81.3988 1.66388 81.3722 1.60801C81.3509 1.55835 81.3297 1.5211 81.3244 1.51489H83.1655C83.1389 1.54593 83.0325 1.64526 82.8462 1.8253C82.66 2.00533 82.4844 2.24745 82.3141 2.55164L80.1111 6.65519Z" fill="#006086"/>
<path d="M89.5244 7.00891H86.6935L86.1401 8.67888C86.055 8.92099 86.0177 9.11965 86.0284 9.28106C86.039 9.44247 86.0656 9.57905 86.1188 9.67838C86.172 9.77771 86.2252 9.85221 86.2838 9.90187C86.3423 9.95154 86.3742 9.97637 86.3849 9.98878H84.2617C84.2724 9.97637 84.3096 9.94533 84.3735 9.88946C84.4373 9.83359 84.5171 9.74667 84.6023 9.63493C84.6874 9.52318 84.7726 9.39281 84.863 9.2314C84.9535 9.07619 85.0333 8.88995 85.1131 8.67888L87.1245 2.83086C87.1618 2.74395 87.1884 2.63841 87.2097 2.51425C87.231 2.39009 87.231 2.26593 87.215 2.14798C87.199 2.03002 87.1671 1.91207 87.1086 1.79411C87.0501 1.67616 86.9649 1.58304 86.8531 1.50854H88.8752C88.9231 1.65133 88.9816 1.81894 89.0615 2.00518C89.136 2.19143 89.2424 2.45217 89.3754 2.7812C89.5084 3.11022 89.6734 3.5448 89.8703 4.07869C90.0672 4.61259 90.3066 5.25202 90.578 6.00941C90.8494 6.76679 91.174 7.65454 91.5411 8.67888C91.6156 8.88995 91.7008 9.07619 91.7859 9.2314C91.8764 9.39281 91.9615 9.52318 92.0467 9.62871C92.1318 9.73425 92.201 9.82117 92.2595 9.88325C92.3181 9.94533 92.3553 9.98258 92.3712 9.98878H89.9395C89.9395 9.97637 89.9661 9.95154 90.0193 9.90809C90.0725 9.86463 90.1151 9.79013 90.1523 9.6908C90.1896 9.59147 90.2108 9.4611 90.2162 9.29348C90.2215 9.13207 90.1789 8.921 90.0938 8.67267L89.5244 7.00891ZM86.9915 6.10253H89.1998L88.0664 2.99228L86.9915 6.10253Z" fill="#006086"/>
<path d="M96.0746 7.96503C96.0746 7.75395 96.0373 7.57392 95.9628 7.41871C95.8883 7.26351 95.7819 7.12693 95.6489 7.00277C95.5159 6.87861 95.3616 6.76686 95.1913 6.66133C95.0157 6.562 94.8294 6.46267 94.6325 6.36334C94.3611 6.22676 94.0844 6.07777 93.8024 5.90394C93.5257 5.73011 93.2756 5.53146 93.0521 5.30797C92.8286 5.08448 92.653 4.82995 92.5147 4.54438C92.3763 4.2588 92.3072 3.94219 92.3072 3.58833C92.3072 3.27171 92.371 2.97994 92.4987 2.7192C92.6264 2.45846 92.8073 2.22255 93.0362 2.0301C93.265 1.83765 93.5364 1.68244 93.8503 1.5707C94.1589 1.45895 94.4995 1.40308 94.8667 1.40308C95.3828 1.40308 95.8138 1.45275 96.1491 1.54587C96.4843 1.63899 96.7504 1.74452 96.9473 1.86248V3.20343C96.8355 2.9551 96.6173 2.74403 96.3034 2.5702C95.9894 2.39637 95.6116 2.30946 95.1806 2.30946C94.6591 2.30946 94.276 2.42121 94.0259 2.63849C93.7758 2.86198 93.6481 3.11031 93.6481 3.38967C93.6481 3.5635 93.6907 3.71869 93.7811 3.86769C93.8716 4.01047 93.9887 4.14705 94.1323 4.27742C94.2813 4.40779 94.4463 4.53195 94.6432 4.6437C94.8401 4.75544 95.0316 4.87341 95.2285 4.99136C95.5318 5.16519 95.8138 5.339 96.0799 5.52525C96.346 5.70528 96.5748 5.90394 96.7663 6.12123C96.9579 6.33851 97.1122 6.58062 97.2239 6.84757C97.3357 7.11452 97.3942 7.42492 97.3942 7.76636C97.3942 8.10781 97.3251 8.43064 97.1814 8.72242C97.0377 9.0142 96.8408 9.26873 96.5854 9.4798C96.33 9.69088 96.032 9.8585 95.6861 9.97645C95.3403 10.0944 94.9678 10.1565 94.5633 10.1565C94.0259 10.1565 93.5789 10.1068 93.2277 10.0137C92.8712 9.92058 92.5945 9.80883 92.387 9.69708L92.2593 8.20094C92.3338 8.33752 92.4455 8.46789 92.5892 8.59826C92.7382 8.72863 92.9031 8.84037 93.0894 8.93349C93.2756 9.02661 93.4778 9.10731 93.6907 9.16318C93.9035 9.21906 94.1111 9.2501 94.3186 9.2501C94.6006 9.2501 94.8507 9.21286 95.0635 9.13215C95.2764 9.05765 95.4573 8.95832 95.6063 8.83416C95.7553 8.70999 95.8724 8.57963 95.9469 8.42443C96.0373 8.26923 96.0746 8.11402 96.0746 7.96503Z" fill="#006086"/>
<path d="M101.752 7.96503C101.752 7.75395 101.715 7.57392 101.641 7.41871C101.566 7.26351 101.46 7.12693 101.327 7.00277C101.194 6.87861 101.039 6.76686 100.869 6.66133C100.693 6.562 100.507 6.46267 100.31 6.36334C100.039 6.22676 99.7622 6.07777 99.4802 5.90394C99.2035 5.73011 98.9534 5.53146 98.7299 5.30797C98.5064 5.08448 98.3308 4.82995 98.1924 4.54438C98.0541 4.2588 97.9849 3.94219 97.9849 3.58833C97.9849 3.27171 98.0488 2.97994 98.1765 2.7192C98.3042 2.45225 98.4851 2.22255 98.7139 2.0301C98.9427 1.83765 99.2141 1.68244 99.5281 1.5707C99.8367 1.45895 100.177 1.40308 100.544 1.40308C101.061 1.40308 101.492 1.45275 101.827 1.54587C102.162 1.63899 102.428 1.74452 102.625 1.86248V3.20343C102.513 2.9551 102.295 2.74403 101.981 2.5702C101.667 2.39637 101.289 2.30946 100.858 2.30946C100.337 2.30946 99.9538 2.42121 99.7037 2.63849C99.4536 2.86198 99.3258 3.11031 99.3258 3.38967C99.3258 3.5635 99.3684 3.71869 99.4589 3.86769C99.5493 4.01047 99.6664 4.14705 99.8101 4.27742C99.9591 4.40779 100.124 4.53195 100.321 4.6437C100.518 4.75544 100.709 4.87341 100.906 4.99136C101.21 5.16519 101.492 5.339 101.758 5.52525C102.024 5.70528 102.253 5.90394 102.444 6.12123C102.636 6.33851 102.79 6.58062 102.902 6.84757C103.013 7.11452 103.072 7.42492 103.072 7.76636C103.072 8.10781 103.003 8.43064 102.859 8.72242C102.715 9.0142 102.519 9.26873 102.263 9.4798C102.008 9.69088 101.71 9.8585 101.364 9.97645C101.018 10.0944 100.646 10.1565 100.241 10.1565C99.7037 10.1565 99.2567 10.1068 98.9055 10.0137C98.549 9.92058 98.2722 9.80883 98.0647 9.69708L97.937 8.20094C98.0115 8.33752 98.1233 8.46789 98.2669 8.59826C98.4159 8.72863 98.5809 8.84037 98.7671 8.93349C98.9534 9.02661 99.1556 9.10731 99.3684 9.16318C99.5813 9.21906 99.7888 9.2501 99.9963 9.2501C100.278 9.2501 100.528 9.21286 100.741 9.13215C100.954 9.05765 101.135 8.95832 101.284 8.83416C101.433 8.70999 101.55 8.57963 101.625 8.42443C101.715 8.26923 101.752 8.11402 101.752 7.96503Z" fill="#006086"/>
<path d="M108.42 9.99514H103.679C103.689 9.99514 103.716 9.9641 103.759 9.90823C103.801 9.85236 103.849 9.77165 103.902 9.66611C103.955 9.56058 104.003 9.42399 104.046 9.26258C104.088 9.10117 104.11 8.90873 104.11 8.68523V2.8248C104.11 2.60131 104.088 2.41506 104.046 2.24744C104.003 2.08603 103.955 1.94946 103.902 1.84392C103.849 1.73838 103.801 1.65768 103.759 1.60181C103.716 1.54593 103.689 1.51489 103.679 1.51489H108.436L108.505 3.02967C108.409 2.85584 108.266 2.72547 108.069 2.62614C107.872 2.53301 107.558 2.48335 107.132 2.48335H105.334V5.17766H107.159C107.329 5.17766 107.473 5.15904 107.595 5.11558C107.718 5.07213 107.824 5.02867 107.909 4.97901C107.994 4.92934 108.058 4.88589 108.106 4.83622C108.154 4.78656 108.18 4.76172 108.191 4.7493V6.50619C108.18 6.49377 108.154 6.46895 108.111 6.42549C108.069 6.38203 108.005 6.33858 107.92 6.28891C107.835 6.23925 107.728 6.19579 107.6 6.15233C107.473 6.10888 107.324 6.09025 107.153 6.09025H105.328V9.03909H107.127C107.334 9.03909 107.51 9.02668 107.659 9.00184C107.808 8.97701 107.93 8.93976 108.037 8.88389C108.138 8.83422 108.228 8.76593 108.298 8.69764C108.367 8.62315 108.436 8.53624 108.505 8.4307L108.42 9.99514Z" fill="#006086"/>
<path d="M108.851 1.50854H114.949L114.976 3.07919C114.912 2.98607 114.843 2.89916 114.768 2.81845C114.699 2.74395 114.608 2.67566 114.507 2.62599C114.401 2.57633 114.278 2.53288 114.129 2.50805C113.98 2.48321 113.805 2.47079 113.597 2.47079H112.506V8.67888C112.506 8.88995 112.528 9.07619 112.565 9.2314C112.602 9.39281 112.645 9.52318 112.698 9.63493C112.751 9.74667 112.799 9.82738 112.842 9.88946C112.884 9.95154 112.911 9.98258 112.922 9.98878H110.857C110.868 9.98878 110.894 9.95774 110.937 9.90187C110.979 9.846 111.027 9.76529 111.08 9.65976C111.134 9.55422 111.182 9.41764 111.224 9.25623C111.267 9.09482 111.288 8.90237 111.288 8.67888V2.47079H110.197C109.782 2.47079 109.479 2.52046 109.292 2.61979C109.106 2.71912 108.947 2.87432 108.824 3.07298L108.851 1.50854Z" fill="#006086"/>
<path d="M51.818 22.6471C51.7807 22.5912 51.7328 22.5167 51.6849 22.4112C51.637 22.3118 51.5838 22.1753 51.5306 22.0201C51.4774 21.8649 51.4401 21.6724 51.4135 21.4613L50.6792 15.663C50.6526 15.4581 50.6473 15.2781 50.6579 15.1229C50.6686 14.9739 50.6898 14.8373 50.7111 14.7318C50.7324 14.6262 50.759 14.5455 50.7803 14.4959C50.8016 14.4462 50.8229 14.4152 50.8335 14.3965L50.8708 14.3282H49.6575L49.6362 14.3965C49.6309 14.4214 49.615 14.4897 49.5618 14.6635L47.5131 20.2197L45.4644 14.6635C45.4059 14.4834 45.3899 14.4152 45.3899 14.3903L45.374 14.3282H44.1554L44.198 14.4027C44.2033 14.4152 44.2192 14.4462 44.2458 14.5021C44.2724 14.5517 44.2937 14.6324 44.315 14.738C44.3363 14.8497 44.3523 14.9801 44.3682 15.1291C44.3789 15.2843 44.3735 15.4643 44.3469 15.6692L43.6126 21.4675C43.586 21.6848 43.5435 21.8711 43.4956 22.0263C43.4477 22.1815 43.3945 22.3118 43.3413 22.4174C43.288 22.5229 43.2455 22.5974 43.2082 22.6533C43.1657 22.7154 43.155 22.7278 43.1497 22.7278L43.0752 22.8147H43.1656H44.6716H44.746L44.7035 22.7402C44.7035 22.7402 44.6928 22.7278 44.6609 22.6471C44.6396 22.5912 44.613 22.5105 44.5864 22.405C44.5598 22.2994 44.5439 22.1691 44.5385 22.0139C44.5279 21.8587 44.5385 21.6786 44.5651 21.4738L45.1132 17.1343L47.2736 22.7775L47.2843 22.8023H47.7366L49.9076 17.1219L50.4557 21.4675C50.4823 21.6724 50.493 21.8524 50.4823 22.0076C50.4717 22.1628 50.4557 22.2932 50.4344 22.3988C50.4078 22.5043 50.3865 22.585 50.3599 22.6409C50.3333 22.703 50.3174 22.7278 50.3174 22.734L50.2748 22.8085H51.8552H51.9457L51.8765 22.7216C51.8712 22.7154 51.8605 22.703 51.818 22.6471Z" fill="#006086"/>
</svg>
